<?xml version="1.0" encoding="UTF-8" standalone="no"?>
<!-- Generator: Gravit.io -->
<svg xmlns="http://www.w3.org/2000/svg" xmlns:xlink="http://www.w3.org/1999/xlink" style="isolation:isolate" viewBox="0 0 500 500" width="500pt" height="500pt"><path d=" M 250.239 191.252 L 429.039 12.213 C 445.322 -4.071 471.584 -4.071 487.787 12.213 C 504.071 28.496 504.071 54.757 487.787 70.961 L 308.988 250.239 L 487.787 429.039 C 504.071 445.322 504.071 471.584 487.787 487.787 C 471.504 504.071 445.243 504.071 429.039 487.787 L 250.239 308.988 L 70.961 487.787 C 54.678 504.071 28.416 504.071 12.213 487.787 C -4.071 471.504 -4.071 445.243 12.213 429.039 L 191.012 250.239 L 12.292 71.041 C -4.071 54.757 -4.071 28.496 12.213 12.292 C 28.496 -3.911 54.757 -3.991 70.961 12.292 L 250.239 191.092 L 250.239 191.252 Z " fill="rgb(255,255,255)"/></svg>