<?xml version="1.0" encoding="UTF-8" standalone="no"?>
<!-- Generator: Gravit.io -->
<svg xmlns="http://www.w3.org/2000/svg" xmlns:xlink="http://www.w3.org/1999/xlink" style="isolation:isolate" viewBox="1001 445 24 24" width="24pt" height="24pt"><path d=" M 1020 445 L 1006 445 C 1003.239 445 1001 447.239 1001 450 L 1001 464 C 1001 466.761 1003.239 469 1006 469 L 1020 469 C 1022.762 469 1025 466.761 1025 464 L 1025 450 C 1025 447.239 1022.762 445 1020 445 Z  M 1009 464 L 1006 464 L 1006 453 L 1009 453 L 1009 464 Z  M 1007.5 451.732 C 1006.534 451.732 1005.75 450.942 1005.75 449.968 C 1005.75 448.994 1006.534 448.204 1007.5 448.204 C 1008.466 448.204 1009.25 448.994 1009.25 449.968 C 1009.25 450.942 1008.467 451.732 1007.5 451.732 Z  M 1021 464 L 1018 464 L 1018 458.396 C 1018 455.028 1014 455.283 1014 458.396 L 1014 464 L 1011 464 L 1011 453 L 1014 453 L 1014 454.765 C 1015.396 452.179 1021 451.988 1021 457.241 L 1021 464 Z " fill="rgb(255,255,255)"/></svg>